# xmcd
#
# Track frame offsets: 
#        300
#        13018
#        39177
#        57691
#        78244
#        91991
#        116782
#        135316
#        145001
#        163623
#        178655
#        199456
#        216272
#
# Disc length: 3110 seconds
#
# Revision: 4
# Processed by: cddbd v1.5.2PL0 Copyright (c) Steve Scherf et al.
# Submitted via: ExactAudioCopy v1.0b1
#
DISCID=b60c220d
DTITLE=Blues Company - Vintage
DYEAR=1995
DGENRE=Blues
TTITLE0=Gotta Getcha
TTITLE1=Cold Rain
TTITLE2=Blue And Lonesome
TTITLE3=It's Allright
TTITLE4=Someone To Love
TTITLE5=Waiting For You
TTITLE6=Rich Man's Blues
TTITLE7=Alcohol
TTITLE8=Riot In Cell Block #9
TTITLE9=Gotta Get Loaded
TTITLE10=Georgia On My Mind
TTITLE11=Taxi
TTITLE12=Walk On
EXTD=
EXTT0=
EXTT1=
EXTT2=
EXTT3=
EXTT4=
EXTT5=
EXTT6=
EXTT7=
EXTT8=
EXTT9=
EXTT10=
EXTT11=
EXTT12=
PLAYORDER=
